Coordinates
version=1
nRows=17
nColumns=38
inDegrees=yes

Units are S.I. units (second, meters, Newtons, ...)
Angles are in degrees.

endheader
time	pelvis_tilt	pelvis_list	pelvis_rotation	pelvis_tx	pelvis_ty	pelvis_tz	hip_flexion_r	hip_adduction_r	hip_rotation_r	knee_angle_r	ankle_angle_r	subtalar_angle_r	mtp_angle_r	hip_flexion_l	hip_adduction_l	hip_rotation_l	knee_angle_l	ankle_angle_l	subtalar_angle_l	mtp_angle_l	lumbar_extension	lumbar_bending	lumbar_rotation	arm_flex_r	arm_add_r	arm_rot_r	elbow_flex_r	pro_sup_r	wrist_flex_r	wrist_dev_r	arm_flex_l	arm_add_l	arm_rot_l	elbow_flex_l	pro_sup_l	wrist_flex_l	wrist_dev_l
      0.00000000	     -0.10962750	     -1.61891730	      2.26024890	      0.33200404	      0.87554169	      0.01313679	    -17.74689734	      4.53382341	      7.59650709	     -3.71769149	     18.00686697	      0.00000000	      0.00000000	     23.91126657	     -0.42006355	      8.00226313	     -0.74571590	      9.57095834	      0.00000000	      0.00000000	     -8.67146430	      4.60017670	      2.37382385	     11.60500068	    -15.44214051	     -5.06860534	     47.41649548	    109.42960874	      0.00000000	      0.00000000	    -17.20185090	     -9.10294421	    -41.73702422	     30.56491591	    106.37464891	      0.00000000	      0.00000000
      0.00500000	     -0.04135151	     -1.59415073	      2.16826108	      0.33786014	      0.87486860	      0.01295383	    -18.00660422	      4.48874522	      7.77365698	     -4.12232089	     17.99792082	      0.00000000	      0.00000000	     23.98428113	     -0.33208131	      8.20820183	     -1.39439113	      9.37253280	      0.00000000	      0.00000000	     -8.76068970	      4.47785324	      2.38801548	     11.77081142	    -15.25490180	     -5.11505759	     47.56761121	    109.41086054	      0.00000000	      0.00000000	    -17.37788725	     -9.27688226	    -41.81781788	     30.33540669	    106.36580476	      0.00000000	      0.00000000
      0.01000000	      0.01764848	     -1.49337319	      2.07888404	      0.34361823	      0.87428004	      0.01274148	    -18.24194371	      4.35504526	      7.94185510	     -4.57342922	     18.04071251	      0.00000000	      0.00000000	     24.11715759	     -0.15064894	      8.32463025	     -2.26563548	      8.78074514	      0.00000000	      0.00000000	     -8.85234121	      4.27874522	      2.42531216	     11.88730010	    -15.06131507	     -5.23000648	     47.76356549	    109.37886973	      0.00000000	      0.00000000	    -17.47463671	     -9.48308542	    -41.92145170	     29.99305408	    106.35994363	      0.00000000	      0.00000000
      0.01500000	      0.00315025	     -1.40477347	      1.93414860	      0.34974634	      0.87365640	      0.01241550	    -18.42255988	      4.19894257	      7.99305315	     -4.98239007	     18.10181340	      0.00000000	      0.00000000	     24.27514592	      0.00140648	      8.14435462	     -3.10533372	      7.66650403	      0.00000000	      0.00000000	     -8.79769962	      4.09803069	      2.60071688	     11.79622362	    -14.86585291	     -5.63385182	     48.07691515	    109.27537040	      0.00000000	      0.00000000	    -17.39736279	     -9.71035368	    -42.26718878	     29.21795859	    106.36065871	      0.00000000	      0.00000000
      0.02000000	      0.08210408	     -1.34189690	      1.80902551	      0.35590842	      0.87309926	      0.01205220	    -18.64828850	      4.08342061	      8.17788421	     -5.51471878	     18.06236758	      0.00000000	      0.00000000	     24.36199631	      0.14537552	      8.25826117	     -4.00929316	      7.21453430	      0.00000000	      0.00000000	     -8.86609086	      3.93752253	      2.65978353	     11.83658370	    -14.70852232	     -5.73791508	     48.26461868	    109.23811325	      0.00000000	      0.00000000	    -17.55022528	     -9.88038002	    -42.40723066	     28.99633132	    106.37142908	      0.00000000	      0.00000000
      0.02500000	      0.11141075	     -1.35139774	      1.65480689	      0.36250956	      0.87252613	      0.01174380	    -18.89028754	      4.02302737	      8.27445489	     -5.91734535	     18.01856245	      0.00000000	      0.00000000	     24.31872899	      0.19402018	      8.41833776	     -4.62862454	      6.95608295	      0.00000000	      0.00000000	     -8.77853727	      3.83138804	      2.77185138	     11.75606996	    -14.59612130	     -5.76566208	     48.31916003	    109.22807118	      0.00000000	      0.00000000	    -17.84439928	    -10.00359736	    -42.48705556	     28.85097544	    106.37507383	      0.00000000	      0.00000000
      0.03000000	      0.06746312	     -1.25314985	      1.45359998	      0.36847858	      0.87203159	      0.01143563	    -18.85846436	      3.84758937	      8.41454093	     -6.63254928	     17.93337396	      0.00000000	      0.00000000	     24.57913570	      0.35142012	      7.95523433	     -5.55405398	      5.42594063	      0.00000000	      0.00000000	     -8.74835400	      3.62239442	      3.04214425	     11.56884212	    -14.40331875	     -6.34288687	     48.88905700	    109.05876612	      0.00000000	      0.00000000	    -17.63513645	    -10.20177897	    -43.01123245	     28.20545828	    106.48471801	      0.00000000	      0.00000000
      0.03500000	      0.06785193	     -1.23270660	      1.35045474	      0.37471811	      0.87162435	      0.01100635	    -18.96346023	      3.78196044	      8.56693799	     -7.20028274	     17.71329317	      0.00000000	      0.00000000	     24.68217489	      0.47039800	      7.92638351	     -6.33556184	      4.71300434	      0.00000000	      0.00000000	     -8.70736361	      3.50311723	      3.10233357	     11.48477848	    -14.24153308	     -6.55646868	     49.12372672	    108.95730187	      0.00000000	      0.00000000	    -17.70758821	    -10.33132032	    -43.34321330	     27.92821840	    106.59948068	      0.00000000	      0.00000000
      0.04000000	      0.09937351	     -1.16889574	      1.24029558	      0.38099352	      0.87132937	      0.01058605	    -19.09622420	      3.66803615	      8.75016487	     -7.78360840	     17.52908500	      0.00000000	      0.00000000	     24.68592977	      0.63555022	      8.12263654	     -7.04130780	      4.26731746	      0.00000000	      0.00000000	     -8.69682946	      3.32846404	      3.13496006	     11.45974411	    -14.08476728	     -6.61504763	     49.24312265	    108.92846268	      0.00000000	      0.00000000	    -17.83802751	    -10.43454298	    -43.47655877	     27.82886465	    106.62946778	      0.00000000	      0.00000000
      0.04500000	      0.06832578	     -1.10778047	      1.13030975	      0.38738098	      0.87107616	      0.01009518	    -19.09286665	      3.54852622	      8.67722119	     -8.46712812	     17.09915374	      0.00000000	      0.00000000	     24.72684627	      0.78630637	      8.04995209	     -7.65837583	      3.00520006	      0.00000000	      0.00000000	     -8.59257377	      3.15638894	      3.18431292	     11.29777948	    -13.89494721	     -6.88783247	     49.48618722	    108.83309394	      0.00000000	      0.00000000	    -17.93965024	    -10.54249223	    -43.85836149	     27.64156807	    106.73037061	      0.00000000	      0.00000000
      0.05000000	      0.08640823	     -1.03629459	      1.01685007	      0.39359932	      0.87097669	      0.00964780	    -19.18425898	      3.42514326	      8.88764939	     -9.06620035	     16.86010651	      0.00000000	      0.00000000	     24.68355933	      0.95430456	      8.30127812	     -8.27564604	      2.58805454	      0.00000000	      0.00000000	     -8.57156495	      2.96472354	      3.22626918	     11.24500731	    -13.74533853	     -6.94473460	     49.56414265	    108.80721888	      0.00000000	      0.00000000	    -18.04880960	    -10.65480634	    -43.99580430	     27.59067960	    106.75808912	      0.00000000	      0.00000000
      0.05500000	      0.03606673	     -0.95803539	      0.90088828	      0.39992572	      0.87093545	      0.00905657	    -19.10216112	      3.27654785	      8.83766142	     -9.82389893	     16.29649213	      0.00000000	      0.00000000	     24.65104475	      1.11689349	      8.42025370	     -8.74340309	      1.59692702	      0.00000000	      0.00000000	     -8.45386821	      2.78593672	      3.26056937	     11.09686326	    -13.58628047	     -7.18602756	     49.72666256	    108.73586735	      0.00000000	      0.00000000	    -18.14904972	    -10.71486316	    -44.32066712	     27.51095001	    106.82816165	      0.00000000	      0.00000000
      0.06000000	     -0.06803847	     -0.83179558	      0.81559199	      0.40616622	      0.87098992	      0.00852112	    -18.93159452	      3.10194483	      8.80296152	    -10.62390183	     15.62410359	      0.00000000	      0.00000000	     24.69160997	      1.33798599	      8.59162938	     -9.27784171	      0.68728358	      0.00000000	      0.00000000	     -8.29585892	      2.53288594	      3.33845980	     10.88667670	    -13.38734033	     -7.56677217	     49.89452303	    108.60325121	      0.00000000	      0.00000000	    -18.12510204	    -10.79698948	    -44.87942587	     27.36883168	    107.01698724	      0.00000000	      0.00000000
      0.06500000	     -0.12664438	     -0.72930555	      0.74238261	      0.41243387	      0.87119102	      0.00805079	    -18.76931711	      2.96446137	      8.74330001	    -11.49723838	     14.97510479	      0.00000000	      0.00000000	     24.72042665	      1.51725522	      8.59513448	     -9.90198496	      0.35336032	      0.00000000	      0.00000000	     -8.18073197	      2.29810675	      3.36046896	     10.69922758	    -13.16464391	     -7.78527241	     49.97978087	    108.52197024	      0.00000000	      0.00000000	    -18.16376726	    -10.93659880	    -45.18495295	     27.30297568	    107.16264736	      0.00000000	      0.00000000
      0.07000000	     -0.11733863	     -0.66778107	      0.69064931	      0.41864304	      0.87157216	      0.00749043	    -18.68235089	      2.88467524	      8.83581374	    -12.31286793	     14.38371143	      0.00000000	      0.00000000	     24.70623749	      1.67094422	      8.69954947	    -10.61496882	      0.08752334	      0.00000000	      0.00000000	     -8.15897282	      2.12646766	      3.33401553	     10.55895782	    -13.02601832	     -7.92339624	     50.04047134	    108.47731522	      0.00000000	      0.00000000	    -18.19758876	    -11.04553912	    -45.34352112	     27.25911520	    107.24520226	      0.00000000	      0.00000000
      0.07500000	     -0.12913378	     -0.58863427	      0.64170265	      0.42477278	      0.87201480	      0.00694817	    -18.46876331	      2.78778529	      8.80520594	    -13.30469335	     13.60098490	      0.00000000	      0.00000000	     24.77002756	      1.83240360	      8.68113650	    -11.44576820	     -0.12402276	      0.00000000	      0.00000000	     -8.11683199	      1.93261165	      3.32348173	     10.37795876	    -12.86120622	     -8.10720475	     50.13672358	    108.42844301	      0.00000000	      0.00000000	    -18.19491420	    -11.14529679	    -45.51505162	     27.24529590	    107.32108198	      0.00000000	      0.00000000
      0.08000000	     -0.35736368	     -0.52773655	      0.62115518	      0.43108961	      0.87222154	      0.00639299	    -17.99730797	      2.70791042	      8.68025653	    -14.34963410	     12.54054070	      0.00000000	      0.00000000	     25.13937139	      1.98662990	      8.52714032	    -12.43980967	     -0.13612770	      0.00000000	      0.00000000	     -7.77835434	      1.75975373	      3.41874414	     10.01602252	    -12.65041024	     -8.61630372	     50.32176111	    108.28809964	      0.00000000	      0.00000000	    -18.11718099	    -11.28031977	    -45.98977422	     27.15670957	    107.61999824	      0.00000000	      0.00000000
